# xmcd
#
# Track frame offsets:
#	150
#	12144
#	25426
#	37382
#	48681
#	60141
#	71582
#	83435
#	95433
#	108100
#
# Disc length: 1606 seconds
#
# Revision: 0
# Processed by: cddbd v1.5.1PL2 Copyright (c) Steve Scherf et al.
# Submitted via: audiograbber 1.83.01
#
DISCID=7706440a
DTITLE=Bob Wills - Best of Bob Wills 1968
DYEAR=2001
DGENRE=Country
TTITLE0=San Antonio Rose
TTITLE1=Smoke on the Water
TTITLE2=Texas Playboy Rag
TTITLE3=Silver Dew on the Bluegrass Tonight
TTITLE4=Sugar Moon
TTITLE5=New Spanish Two Step
TTITLE6=Roly Poly
TTITLE7=Bob Wills Boogie
TTITLE8=Texarkana Baby
TTITLE9=Stay A Little Longer
EXTD=
EXTT0=
EXTT1=
EXTT2=
EXTT3=
EXTT4=
EXTT5=
EXTT6=
EXTT7=
EXTT8=
EXTT9=
PLAYORDER=
